<svg id="object" xmlns="http://www.w3.org/2000/svg" xmlns:xlink="http://www.w3.org/1999/xlink" viewBox="0 0 911.34 738.29"><defs><style>.cls-1{fill:url(#linear-gradient);}.cls-2{fill:url(#linear-gradient-2);}.cls-3{fill:#002d51;}.cls-4{fill:#4f4c4c;}.cls-5{fill:#393737;}.cls-6{fill:#c8e7f5;}.cls-7{fill:#e69689;}.cls-8{fill:#a6d6ca;}.cls-9{fill:#fcfcfc;}.cls-10{fill:#352f2f;}.cls-11{fill:#af8e52;}.cls-12{fill:#ffd54d;}.cls-13{fill:#fdb037;}.cls-14{fill:#ffc764;}.cls-15{fill:#00baba;}.cls-16{fill:#9ba7ae;}.cls-17{fill:#eac9a7;}.cls-18{fill:#4d4a4a;}.cls-19{fill:#5d7177;}.cls-20{fill:#fff;}.cls-21{fill:#53453e;}.cls-22{fill:#002035;}.cls-23{fill:#c2d69f;}</style><linearGradient id="linear-gradient" x1="531.19" y1="790" x2="531.19" y2="86.06" gradientUnits="userSpaceOnUse"><stop offset="0" stop-color="#ffa88a"/><stop offset="1" stop-color="#ffd385"/></linearGradient><linearGradient id="linear-gradient-2" x1="455.67" y1="599.36" x2="455.67" y2="713" gradientUnits="userSpaceOnUse"><stop offset="0" stop-color="#3a3a3a" stop-opacity="0.5"/><stop offset="1" stop-color="#515151" stop-opacity="0.1"/></linearGradient></defs><title>illustration</title><path class="cls-1" d="M203,738.6c43.58,29.18,105.41,34.84,170.79,41.87,181.51,19.53,410.82,5.08,478.42-8.11,36.65-7.14,56.47-24.88,70.34-40.73C953.36,696.36,980.88,548,780.08,491.4c-21.05-5.93-47.56-14-62.11-33.86-44.4-60.67,94.79-49.42,148.73-147.26,27.46-49.8,19.2-114.71-14.67-156.56C786.64,72.94,626.8,43.81,517.68,53.5,367.6,66.82,258,135,182.56,220.33,122.5,288.24,92.48,336,146.61,445.82c5.94,12.06,12.86,24,17.35,36.57,13.67,38.3,14.8,71-.43,126.72C150,658.72,167.08,714.58,203,738.6Z" transform="translate(-107.78 -51.71)"/><ellipse class="cls-2" cx="455.67" cy="656.18" rx="455.67" ry="56.82"/><polygon class="cls-3" points="466.56 626.85 478.64 636.78 476.29 642.89 452.96 635.12 455.95 626.25 466.56 626.85"/><polygon class="cls-4" points="416.94 463 422.2 486.69 453.73 556.45 454.56 625.59 468.87 626.61 479.54 531.66 475.25 504.66 457.93 450.69 416.94 463"/><polygon class="cls-4" points="437.44 458.74 434.19 636.98 423.99 638.27 406.93 555.33 382.36 473.35 437.44 458.74"/><polygon class="cls-5" points="435.06 635.14 449.24 641.73 448.49 648.24 423.96 646.54 424.65 637.21 435.06 635.14"/><path class="cls-6" d="M588.61,407.06l-16.35-20.33s-37,2.32-63.71,43.73c-26.47,41.09-24.3,117.61-24.3,117.61s82.35-7.68,97.55-4.12l-3.54-13.21a149.84,149.84,0,0,1,12.31-109l1.75-3.31A16.93,16.93,0,0,0,588.61,407.06Z" transform="translate(-107.78 -51.71)"/><path class="cls-7" d="M621.47,387.57c-8.17-4.1-11.66-14.9-20.32-17.9-5.63-1.95-12.24.13-16.76,4.23a14.58,14.58,0,0,0-4.56,7c-.91,3.61,2.06,7.83,1.39,10.67-.62,2.59-.16.75-2.05,2.45-1.19,1.06-3.37.44-4.77,2-2,2.17-1.74,7.9-1.47,10.57,1.07,10.75,13.86-2.3,17.53-5.19a19.28,19.28,0,0,0,3.52,1.44,21.76,21.76,0,0,0,21.45-6.05A42,42,0,0,0,621.47,387.57Z" transform="translate(-107.78 -51.71)"/><polygon class="cls-3" points="510.31 337.04 487.81 319.72 472.07 335.41 468.47 325.91 490.05 297.74 524.66 317.39 534.28 334.9 528.47 343.23 509.93 344.24 510.31 337.04"/><polygon class="cls-3" points="764.51 648.35 764.43 653.47 777.45 660.23 784.11 653.77 777.65 647.11 776.8 647.1 776.57 648.54 764.51 648.35"/><polygon class="cls-3" points="732.22 646.42 731.31 646.4 724.65 652.87 731.11 659.52 744.33 653.16 744.41 648.05 732.35 647.87 732.22 646.42"/><path class="cls-8" d="M843.11,505.4c1.86-8.72,3.34-16.76,3.53-21.13.57-13.15,2.89-56.58,2.89-56.58l8.28-16.5,1.48,0-.32,0c.35.05-.12-3.22-.24-3.51-7-.34-16,3.46-20.52,8.88-3.32,4-5.33,8.95-7.29,13.79-5.53,13.65-8.13,26.34-11,40.73-1.84,9.18-3.54,18.32-4.91,27.44A290.82,290.82,0,0,0,812,528.73c0,1.11-.31,4.2-.49,7.91-.38,7.75-.37,18.14,2.84,18.57a3.11,3.11,0,0,0,1.72-.43c4.16-2,7.46-4.6,11.14-6.87l.81-40.48Z" transform="translate(-107.78 -51.71)"/><path class="cls-8" d="M916.33,548.13c-.69-8.63-1.41-17.25-2.32-25.86-1.82-17.17-4.39-34.31-8.92-51-1.74-6.36-3.75-12.64-5.77-18.92L892,429.44c-3.05-9.5-8.34-16.24-17.72-19.69a34.35,34.35,0,0,0-5.27-1.46c0,.19-.09.39-.12.6a5,5,0,0,1-1,2.56l6.19.15s16.52,62.35,17,73.06c.18,4.07.86,13,1.62,22.33l9.46,1.57L902,544.34c.52.17,1.05.33,1.57.47,3,.86,5.41,3.13,7.89,4.92C915.15,552.37,916.76,553.42,916.33,548.13Z" transform="translate(-107.78 -51.71)"/><path class="cls-8" d="M892.71,507c1.2,14.83,2.62,30.85,2.62,30.85s-7.68.06-18.78.74c.82,0,1.64,0,2.46,0,7.72,0,15.67,3.5,23,5.77l.13-35.78Z" transform="translate(-107.78 -51.71)"/><path class="cls-8" d="M840.37,542.53c-5.29.2-5.94-.81-5.94-.81s5.07-19.42,8.68-36.32l-15.14,2-.81,40.48a37.8,37.8,0,0,1,4.08-2.23A50.47,50.47,0,0,1,840.37,542.53Z" transform="translate(-107.78 -51.71)"/><path class="cls-3" d="M902,544.34c-7.36-2.27-15.31-5.73-23-5.77-.82,0-1.64,0-2.46,0l-2.1.13c-5.18.34-11,.8-17.08,1.45l-.89.09a104.88,104.88,0,0,1-16.11,2.28,50.47,50.47,0,0,0-9.13,3.15,37.8,37.8,0,0,0-4.08,2.23l-.17,8.43L839.6,699.76l12.13.18,0,1.46h.07l14.79-95.84.07-.54,5.83,96.7h.07l0-1.46,12.19.18,17.1-107.32Z" transform="translate(-107.78 -51.71)"/><path class="cls-9" d="M892.71,507c-.76-9.36-1.44-18.26-1.62-22.33-.48-10.71-17-73.06-17-73.06l-6.19-.15c-.07.07-.14.15-.22.22a2,2,0,0,1-.68.37,3.37,3.37,0,0,1-1.58,0l-6.13-.83-1.48,0-8.28,16.5s-2.32,43.43-2.89,56.58c-.19,4.37-1.67,12.41-3.53,21.13-3.61,16.9-8.68,36.32-8.68,36.32s.65,1,5.94.81a104.88,104.88,0,0,0,16.11-2.28l.89-.09c6.08-.65,11.9-1.11,17.08-1.45l2.1-.13c11.1-.68,18.78-.74,18.78-.74S893.91,521.82,892.71,507Z" transform="translate(-107.78 -51.71)"/><path class="cls-10" d="M880.36,369.38a24.28,24.28,0,0,1,2.18,11c0,1,0,2.17.73,2.82s0,2,.68,1.23,3.1-3.6,3.27-4.67a40.55,40.55,0,0,0,.49-7.55,10.92,10.92,0,0,0-1.65-6.26,12.17,12.17,0,0,0-2.88-2.56,15.49,15.49,0,0,0-4.89-2.64c-3.1-.81-5.1.21-2.48,2.62A19.46,19.46,0,0,1,880.36,369.38Z" transform="translate(-107.78 -51.71)"/><path class="cls-11" d="M858,410.91,870.91,413a83,83,0,0,0,1.91-11.44c3.8-.4,8.31-1.34,9.86-5.26a13.43,13.43,0,0,0,.69-3.95q.61-8.33,1.22-16.66a16.35,16.35,0,0,0-.25-5.72c-.93-3.21-3.69-5.26-6.44-6.63-7-3.48-15.44-3.93-22.38-.12a12.2,12.2,0,0,0-4.77,4.26c-1.78,2.95-1.83,6.73-1.81,10.26l0,9.8c0,3.75.28,8.09,3,10.26,1.44,1.15,3.39,1.47,4.6,2.92C858.73,403.29,857.4,407.47,858,410.91Z" transform="translate(-107.78 -51.71)"/><path class="cls-10" d="M884.84,390.24c0-1-.23-4.08-1.88-2.29a3.19,3.19,0,0,0-.65,1.83,7,7,0,0,1-.32,1.94,3.4,3.4,0,0,1-3.55,1.82,3.15,3.15,0,0,1-1.57-.49,5.07,5.07,0,0,1-1.14-1.21l-2.45-3.29c-1.41-1.89-4.49-1.32-6.57-1.19a13.06,13.06,0,0,0-6.85,2.18l-.61.46a7.23,7.23,0,0,1-1.55,1c-1.89.78-4.09-.32-5.26-2.1-.54-.82-1-1.85-1.93-2.05a1.87,1.87,0,0,0-1.84,1,5.41,5.41,0,0,0-.67,2.25,17,17,0,0,0,.88,8.46c2.29,5.7,7.37,6.73,12.53,7l6.12.27c3.72.16,7.67.27,11-1.72,2.89-1.75,4.76-4.94,5.66-8.36A22,22,0,0,0,884.84,390.24Zm-14.13,6.9a7.06,7.06,0,0,1-6.36.32c-.91-.35-.41-1.91.5-1.56a5.63,5.63,0,0,0,5.19-.23C870.9,395.17,871.56,396.64,870.71,397.14Z" transform="translate(-107.78 -51.71)"/><path class="cls-10" d="M887.6,360.2a29.43,29.43,0,0,0,1.07-4.05,7.75,7.75,0,0,1-4,.08l.15-2.39c0-.67-8.77-1.73-9.48-1.84-6.69-1-12.8-2-19.12,1.29A18.62,18.62,0,0,0,846,366.56a29,29,0,0,0,3.22,18.55c.08-1.55-.56-5.26-.1-6.71a13.37,13.37,0,0,1,1.69-4.12,17.32,17.32,0,0,1,6.41-6,33,33,0,0,1,13.39-3.6c4.23-.31,9.38-.51,13.44.9,2,.68,2.25,1.21,3.59-.75a35.84,35.84,0,0,0,2-4.45Z" transform="translate(-107.78 -51.71)"/><circle class="cls-12" cx="861.8" cy="372.95" r="76.14" transform="translate(-119.07 666.91) rotate(-45)"/><path class="cls-13" d="M901.64,308a76.15,76.15,0,0,1-104,105.91A76.15,76.15,0,1,0,901.64,308Z" transform="translate(-107.78 -51.71)"/><path class="cls-14" d="M796,381a70.69,70.69,0,0,1,126.73-43.1A70.7,70.7,0,1,0,805.4,416.22,70.36,70.36,0,0,1,796,381Z" transform="translate(-107.78 -51.71)"/><path class="cls-3" d="M894.16,409.45a32.57,32.57,0,0,0-64.72,0Z" transform="translate(-107.78 -51.71)"/><path class="cls-15" d="M829.44,409.45s27.3-20.13,64.72,0Z" transform="translate(-107.78 -51.71)"/><path class="cls-3" d="M820.73,374.18a3.23,3.23,0,0,1-2-5.78l11-8.55-11.36-6.68a3.23,3.23,0,1,1,3.28-5.56l15.44,9.08a3.22,3.22,0,0,1,.35,5.33L822.71,373.5A3.27,3.27,0,0,1,820.73,374.18Z" transform="translate(-107.78 -51.71)"/><path class="cls-3" d="M902.87,374.18a3.27,3.27,0,0,1-2-.68L886.16,362a3.24,3.24,0,0,1,.35-5.33L902,347.61a3.23,3.23,0,0,1,3.27,5.56l-11.35,6.68,11,8.55a3.23,3.23,0,0,1-2,5.78Z" transform="translate(-107.78 -51.71)"/><path class="cls-7" d="M484.39,287.61a2.63,2.63,0,0,0-.31.63c-.54,2.06.42,3.46.46,5.58,0,.95-2,2.32-.32,3.36.62.38,2.28,1.11,3.61,1.91,1.94,1.18,3.69,3.84,4.69,6.21a70.92,70.92,0,0,1,4,13.28c.81,4,2.73,10.23,2,14.31-.66,3.69-5.57,8.31-7.77,11.45q-4.17,5.94-8.15,12c-1.87,2.84-3.75,5.77-4.51,9.09-.47,2-.45,4.28.81,5.92a9.2,9.2,0,0,0,3.21,2.31c2.08,1.08,4.33,2.2,6.67,1.92,2.87-.36,5-2.71,6.86-5a95.3,95.3,0,0,0,10.91-16.24c2.12-4.11,6.11-11.37,5.18-16.05a302.45,302.45,0,0,0-8.5-31.52c-.91-2.86-3.2-4.89-4-7.54-.51-1.7.3-3.4.16-5.11a16.34,16.34,0,0,0-1.49-5.39c-1.47-3-4.87-3.6-7.78-4.42a3.61,3.61,0,0,0-1.91-.19,5.14,5.14,0,0,0-2.59,1.9A10,10,0,0,0,484.39,287.61Z" transform="translate(-107.78 -51.71)"/><path class="cls-16" d="M494.6,362.68c-3.09-2.79-8.23-9.7-12.11-11-5.19-1.73-6.81,2.85-10.35,7.22-2.79,3.43-5.67,6.95-9.5,9.16-5.83,3.36-13,3.27-19.27,5.82a5.32,5.32,0,0,0-2.57,1.8,5,5,0,0,0-.61,2.76c.05,4.06,1.82,7.87,3.55,11.54q6.92,14.6,13.81,29.19a3.22,3.22,0,0,0,1,1.41c1.36.85,2.94-.64,3.84-2,5.93-8.7,11-16.68,18.91-23.35,8.15-6.84,14.23-16.64,18.33-26.38a2,2,0,0,0,.21-1,2,2,0,0,0-.78-1.14Z" transform="translate(-107.78 -51.71)"/><path class="cls-17" d="M441.47,588.64l.53,32.17c-.22,8.93.59,17.82,1.13,26.72.51,8.26-1.16,16.78,2.76,24.44,1.23,2.4,3.85,4.07,5.84,1.3,1.53-2.14.82-5.84,1.2-8.32,2.85-18.65,8.15-36.83,10.8-55.52C466.5,589.86,458.92,590.38,441.47,588.64Z" transform="translate(-107.78 -51.71)"/><polygon class="cls-18" points="335.52 614.76 333.45 620.13 343.63 629.09 352.95 629.47 355.97 624.55 343.43 613.65 335.52 614.76"/><path class="cls-17" d="M418.68,589l-5.86,31.63c-2,14.15-6.66,27.93-8.69,42.08-.47,3.26-.24,6.82-1.6,9.89s-3.93,3.12-6.23,1.08c-3.08-2.73-1.66-7.6-1.6-11.33.38-24.84-1.58-49.32-2.05-74.19a1.14,1.14,0,0,1,.26-.91,1.07,1.07,0,0,1,.77-.15C396.09,587.22,418.56,589.64,418.68,589Z" transform="translate(-107.78 -51.71)"/><polygon class="cls-18" points="286.85 616.08 283.63 620.84 291.52 631.87 300.51 634.35 304.56 630.23 294.81 616.78 286.85 616.08"/><polygon class="cls-19" points="366.85 557.4 362.46 511.42 360.35 481.53 353.23 457.13 314.81 451.17 267.3 459.31 265.02 468.54 274.16 553.97 319.98 557.4 319.36 504.23 326.43 537.19 326.13 557.4 366.85 557.4"/><path class="cls-20" d="M385.16,419c-.06,1.55-.11,3.1-.13,4.65-.56,31.55,1.18,63.5,1.38,95.3a353.18,353.18,0,0,1,49.24-4.2c3.82-.06,21.17,2.62,23.59.34,3.27-3.09-.33-2.51-.09-6.53.31-5.22-2.19-9.49-1.25-15.66,1.11-7.26,3.32-14.44,4.6-21.7a317.51,317.51,0,0,0,4.59-44.05c.44-13.09,0-26.68-5.67-38.51-13.88-29.18-58.66-28.65-70.95,1.81C386.83,399.46,385.57,409.23,385.16,419Z" transform="translate(-107.78 -51.71)"/><path class="cls-16" d="M435.69,378.05l-12.16,22.16q.95,33.59,1.9,67.17.45,15.48.88,31c.1,3.58.19,7.16.31,10.75.05,1.6-.39,4.31.52,5.62,2,2.85,9.27,2,12.45,2.21,5,.39,10,.8,14.64,2.51,3.1,1.14,6,2.85,9.32,3.31a2.78,2.78,0,0,0,2.14-.35,3.12,3.12,0,0,0,.81-2.28c1.14-15.37,1.16-31.21,2-46.75.7-12.71,2.47-26.15,1.37-38.88,0-.21,0-.42-.08-.63-3.91-21.24,4.19-37.45-11.23-56.41-8.3-10.21-12.57-9-23.64-11.7-2.79-.69-8.8-2.86-7.29,2.66C428.51,371.56,433.56,375.51,435.69,378.05Z" transform="translate(-107.78 -51.71)"/><path class="cls-16" d="M409.23,380.13l12.16,22.17c-.25,0-1.54,54.33-1.64,58q-.6,20.93-1.19,41.84c-.11,3.88.41,8.42-.35,12.23-1.06,5.32-6.66,4.27-11.43,4.7-10.44.94-21.43,2.73-31.9,2.2-3-.16,1-63.16.95-69,0-21.15-4.38-44.62,6.36-63.79,3.13-5.58,8.64-14.53,14.72-17.28,5.67-2.57,13.78-3,19.94-4.45l.32,4Z" transform="translate(-107.78 -51.71)"/><path class="cls-21" d="M435.63,326.45a24.57,24.57,0,0,1,3,11.08c.05,1,.12,2.21.95,2.81s.11,2.07.78,1.21,3-3.88,3.08-5a40.64,40.64,0,0,0,0-7.72c-.21-2.23-.67-4.56-2.13-6.26a12.58,12.58,0,0,0-3.15-2.4,16.22,16.22,0,0,0-5.25-2.36c-3.26-.6-5.26.57-2.38,2.84A20,20,0,0,1,435.63,326.45Z" transform="translate(-107.78 -51.71)"/><path class="cls-7" d="M415.23,370.23c0,1.58-.3,3.22,1.09,4.44a4.7,4.7,0,0,0,2.46,1,15.1,15.1,0,0,0,6.84-.48,6.12,6.12,0,0,0,2.49-1.32,3.1,3.1,0,0,0,.89-2.52c0-1.19.29-2.4.44-3.61a78.66,78.66,0,0,0,.57-8c3.91-.67,8.51-1.93,9.85-6a13.47,13.47,0,0,0,.45-4.07l.12-17a16.38,16.38,0,0,0-.65-5.81c-1.18-3.19-4.18-5.1-7.12-6.3-7.5-3.06-16.24-2.94-23.17,1.42a12.53,12.53,0,0,0-4.64,4.67c-1.64,3.11-1.43,7-1.18,10.56.24,3.32.47,6.65.7,10,.27,3.82.85,8.22,3.81,10.23,1.58,1.07,3.62,1.27,5,2.66,2.37,2.42,1.24,6,1.94,9A6,6,0,0,1,415.23,370.23Z" transform="translate(-107.78 -51.71)"/><path class="cls-21" d="M441.68,347.37c-.06-1.05-.52-4.14-2.1-2.2a3.1,3.1,0,0,0-.54,1.9,7.39,7.39,0,0,1-.21,2,3.53,3.53,0,0,1-3.54,2.1,3.41,3.41,0,0,1-1.66-.39,5.12,5.12,0,0,1-1.26-1.16l-2.77-3.18c-1.59-1.82-4.74-1-6.87-.75a13.71,13.71,0,0,0-7,2.68l-.6.51a7.46,7.46,0,0,1-1.53,1.11c-1.91.92-4.26,0-5.6-1.77-.61-.8-1.18-1.82-2.13-2a1.92,1.92,0,0,0-1.84,1.12,5.39,5.39,0,0,0-.54,2.33,17.13,17.13,0,0,0,1.49,8.56c2.75,5.64,8.08,6.33,13.44,6.2l6.35-.15c3.87-.09,8-.25,11.22-2.5,2.88-2,4.59-5.36,5.29-8.89A21.68,21.68,0,0,0,441.68,347.37Zm-14.16,8a7.38,7.38,0,0,1-6.55.76c-1-.29-.56-1.91.41-1.62a5.93,5.93,0,0,0,5.36-.59C427.59,353.34,428.37,354.79,427.52,355.36Z" transform="translate(-107.78 -51.71)"/><path class="cls-21" d="M442.49,316.61a30,30,0,0,0,.83-4.2,8.32,8.32,0,0,1-4.11.36v-2.45c0-.68-9.19-1.16-9.93-1.22-7-.57-13.38-1.12-19.7,2.63A19.06,19.06,0,0,0,399.89,326a29.11,29.11,0,0,0,4.59,18.65c0-1.59-.93-5.32-.55-6.83a13.43,13.43,0,0,1,1.46-4.3,17.79,17.79,0,0,1,6.23-6.55,34.61,34.61,0,0,1,13.61-4.58c4.36-.61,9.67-1.17,14,0,2.07.56,2.42,1.08,3.67-1a36,36,0,0,0,1.8-4.67Z" transform="translate(-107.78 -51.71)"/><path class="cls-7" d="M363,288.93a2.6,2.6,0,0,1,.3.63c.54,2.06-.41,3.46-.45,5.59,0,.94,2,2.31.31,3.35-.62.38-2.27,1.11-3.6,1.91-1.94,1.18-3.69,3.84-4.69,6.21a70.92,70.92,0,0,0-4,13.28c-.81,4-2.74,10.23-2,14.31.66,3.69,5.57,8.31,7.77,11.45q4.15,5.94,8.15,12c1.87,2.84,3.74,5.77,4.51,9.09.46,2,.45,4.28-.81,5.92a9.2,9.2,0,0,1-3.21,2.31c-2.09,1.08-4.34,2.2-6.67,1.92-2.87-.36-5-2.71-6.86-5a96,96,0,0,1-10.92-16.24c-2.12-4.11-6.11-11.37-5.17-16.05a302.45,302.45,0,0,1,8.5-31.52c.9-2.86,3.2-4.89,4-7.54.52-1.7-.29-3.4-.15-5.11a16.56,16.56,0,0,1,1.48-5.39c1.48-3,4.87-3.6,7.79-4.42a3.58,3.58,0,0,1,1.9-.19,5.18,5.18,0,0,1,2.6,1.9A10,10,0,0,1,363,288.93Z" transform="translate(-107.78 -51.71)"/><path class="cls-16" d="M352.76,364c3.09-2.79,8.23-9.7,12.1-11,5.2-1.73,6.81,2.85,10.36,7.22,2.79,3.44,5.66,6.95,9.5,9.16,5.82,3.37,13,3.27,19.26,5.82a5.23,5.23,0,0,1,2.57,1.81,4.85,4.85,0,0,1,.62,2.76c-.05,4.05-1.82,7.87-3.55,11.53L389.8,420.5a3.13,3.13,0,0,1-1,1.41c-1.36.85-2.94-.64-3.84-2-5.93-8.7-11-16.68-18.91-23.35-8.15-6.84-14.24-16.64-18.33-26.38a2,2,0,0,1-.21-1,2,2,0,0,1,.78-1.14Z" transform="translate(-107.78 -51.71)"/><circle class="cls-12" cx="424.15" cy="300.51" r="67.11" transform="translate(-73.54 592.57) rotate(-76.72)"/><path class="cls-13" d="M459.26,243.23a67.12,67.12,0,0,1-91.66,93.35,67.12,67.12,0,1,0,91.66-93.35Z" transform="translate(-107.78 -51.71)"/><path class="cls-14" d="M366.17,307.59a62.3,62.3,0,0,1,111.69-38,62.31,62.31,0,1,0-103.41,69A62,62,0,0,1,366.17,307.59Z" transform="translate(-107.78 -51.71)"/><path class="cls-3" d="M388,301.59a2.84,2.84,0,0,1-1.75-5.09l9.67-7.54-10-5.88a2.85,2.85,0,0,1,2.88-4.91l13.62,8a2.85,2.85,0,0,1,1.39,2.27,2.81,2.81,0,0,1-1.09,2.43L389.7,301A2.85,2.85,0,0,1,388,301.59Z" transform="translate(-107.78 -51.71)"/><path class="cls-3" d="M460.35,301.59a2.85,2.85,0,0,1-1.74-.6l-13-10.11a2.84,2.84,0,0,1-1.1-2.43,2.88,2.88,0,0,1,1.4-2.27l13.61-8a2.85,2.85,0,0,1,2.89,4.91l-10,5.88,9.68,7.54a2.84,2.84,0,0,1-1.75,5.09Z" transform="translate(-107.78 -51.71)"/><path class="cls-8" d="M356.79,322.41c4.59-7.88,31.18-20.24,31.18-20.24s2.39,29.23-2.2,37.11a16.77,16.77,0,0,1-29-16.87Z" transform="translate(-107.78 -51.71)"/><path class="cls-8" d="M491.51,322.41c-4.58-7.88-31.17-20.24-31.17-20.24s-2.39,29.23,2.19,37.11a16.77,16.77,0,0,0,29-16.87Z" transform="translate(-107.78 -51.71)"/><ellipse class="cls-3" cx="316.38" cy="269.51" rx="18.34" ry="21.02"/><path class="cls-15" d="M439.63,332.48a39.68,39.68,0,0,0-30.57.67c3.31,5.49,8.84,9.08,15.09,9.08C430.66,342.23,436.38,338.34,439.63,332.48Z" transform="translate(-107.78 -51.71)"/><path class="cls-6" d="M781.48,223.36a29.61,29.61,0,0,0-7.21.63c-2.06-15.52-15.57-27.79-32.43-28.4a34.58,34.58,0,0,0-28.18,12.59,21.45,21.45,0,0,0-40,2.81,19.64,19.64,0,0,0-13.33-5.81c-10.68-.39-19.67,7.59-20.08,17.82,0,.2,0,.4,0,.6a28.84,28.84,0,0,0-5.86-.81c-15.49-.57-28.53,11-29.13,25.85-.49,12.16,7.52,22.73,18.94,26.47a31.47,31.47,0,0,0-1,6.83c-.73,18,13.91,33.15,32.69,33.84A34.85,34.85,0,0,0,680.4,307c1,10.39,10.16,18.48,21.24,18.37,10.74-.1,19.54-7.86,20.79-17.81A28.38,28.38,0,0,0,743.58,318c12.59.46,23.57-7.11,27.55-17.92a20,20,0,0,0,9.07,2.54c10.68.38,19.67-7.6,20.08-17.83a18,18,0,0,0-4.22-12.29,26.65,26.65,0,0,0,12.38-21.27C809,236.42,797,223.93,781.48,223.36Zm-16,49.69-.11-.12.14.09Z" transform="translate(-107.78 -51.71)"/><path class="cls-20" d="M794.5,227a25.76,25.76,0,0,1,3.44,14,26.65,26.65,0,0,1-12.37,21.27,18,18,0,0,1,4.22,12.29c-.41,10.23-9.4,18.21-20.08,17.82a19.85,19.85,0,0,1-9.07-2.54,28.63,28.63,0,0,1-48.7,7.46c-1.26,10-10.05,17.72-20.79,17.82a21.78,21.78,0,0,1-9.09-1.87,21.16,21.16,0,0,0,19.58,12.16c10.74-.1,19.54-7.86,20.79-17.81A28.38,28.38,0,0,0,743.58,318c12.59.46,23.57-7.11,27.55-17.92a20,20,0,0,0,9.07,2.54c10.68.38,19.67-7.6,20.08-17.83a18,18,0,0,0-4.22-12.29A26.3,26.3,0,0,0,794.5,227Z" transform="translate(-107.78 -51.71)"/><path class="cls-15" d="M321.45,381.35a30.36,30.36,0,0,0-32-28.28c0-.52,0-1.05-.07-1.57a36.83,36.83,0,0,0-66.06-19.84,34.06,34.06,0,0,0-58.11,24.5c-.77,0-1.55,0-2.33.06a30.36,30.36,0,0,0-8.07,58.93A37.37,37.37,0,0,0,193,461.39a37.21,37.21,0,0,0,17.5-5.38c1.71,1,2.82,1.71,2.82,1.71a29.36,29.36,0,0,0,40.91-12.58A32.81,32.81,0,0,0,302.46,414c0-.79-.14-1.56-.25-2.33A30.38,30.38,0,0,0,321.45,381.35Z" transform="translate(-107.78 -51.71)"/><circle class="cls-15" cx="188.32" cy="478.8" r="13.22" transform="translate(-432.08 471.05) rotate(-73.43)"/><path class="cls-15" d="M199.7,502.68a9.27,9.27,0,1,1,9.72,8.78A9.27,9.27,0,0,1,199.7,502.68Z" transform="translate(-107.78 -51.71)"/><path class="cls-6" d="M704.31,530.41c-7.53,1.42-14,4.36-18.36,11.82-3.11,5.34-4.4,11.6-5.71,17.58-3.43,15.62-5,31.54-6.66,47.42-1.64,15.19-6,31.22-1.16,46.21.65,2,2.5,4.41,4.33,3.37q1.44-5,2.86-9.94a10.67,10.67,0,0,1,1.8-4,9.69,9.69,0,0,1,3.13-2.22,54.25,54.25,0,0,1,20.51-5.74c15-1.14,29.74,4,43.93,9l17.53,6.25c-1-15-1.84-30.8-4.92-45.52-3.29-15.71-9-30.82-11.78-46.66-1.2-6.83-1.94-18.17-8.39-23.4-7-5.69-22.85-6-31.76-5C707.84,529.83,706.05,530.08,704.31,530.41Z" transform="translate(-107.78 -51.71)"/><path class="cls-7" d="M717.43,536.33a13.79,13.79,0,0,1-1.2.71c-2.46,1.26-5.83,1.2-7.65-.89a13.86,13.86,0,0,1-1.46-2.43c-2.52-4.62-6.84-5.17-10.2-8.45-3.61-3.52-4.06-9.9-4.29-14.6-.14-2.76-.2-5.69,1.2-8.07,1.6-2.72,4.74-4.1,7.76-5A43.92,43.92,0,0,1,717,496c4.72.35,9.84,1.78,12.41,5.75,3.7,5.7,2.76,16.89-.38,22.6C727.21,527.58,721.25,533.76,717.43,536.33Z" transform="translate(-107.78 -51.71)"/><path class="cls-3" d="M716.32,502.07a49.93,49.93,0,0,0-13.39.47c-4.45.63-9.15,1-13.31-.72-3.47-1.44-6.19-4.2-8.81-6.9s-5.64-6-5.86-10c3.55-1.43,7.56-.95,11.34-1.61a47.14,47.14,0,0,0,8.43-2.74c13.41-5.09,33.26-6.09,42.15,7.81a12.71,12.71,0,0,1,2,4.88,19.36,19.36,0,0,1-.73,7.12l-2.94,12.7c-.9,3.87-2.31,8.34-6.06,9.64a14.81,14.81,0,0,0-.09-11.82C726.43,505.17,721.66,502.81,716.32,502.07Z" transform="translate(-107.78 -51.71)"/><path class="cls-3" d="M693.66,520.44c1.5.8,2.24,0,1.59-2.69-1-4-1.85-8.71.79-11.89a9.19,9.19,0,0,1,6.13-2.92,43.74,43.74,0,0,1,7,.1c3.4.14,17.44-.1,9-5.39a15.34,15.34,0,0,0-5.73-1.78c-5.85-.93-19.68-4.44-22.63,2-2.11,4.57-1.85,10-.42,14.7.61,2,1.77,6,3.53,7.36A5.88,5.88,0,0,0,693.66,520.44Z" transform="translate(-107.78 -51.71)"/><path class="cls-3" d="M677,642.4c-1.68,9.15-3.06,19.57,2.87,26.85,5.73,7,16,8.28,25.15,9,15.32,1.22,31.86,2.17,44.88-5.79a35.36,35.36,0,0,0,16.52-25.41,5,5,0,0,0,0-2,5.48,5.48,0,0,0-1.66-2.24l-16.59-15.71a19.81,19.81,0,0,0-4.37-3.43,19.51,19.51,0,0,0-4.5-1.5c-14.58-3.5-33.58-8.14-48.65-5.84C677.56,618.37,679,631.6,677,642.4Z" transform="translate(-107.78 -51.71)"/><path class="cls-7" d="M702.51,689.67c-2.08.45-4.1,0-6.16.07a105.38,105.38,0,0,1-.73-21.47c3.67,3,6,.6,6.9,7.2C702.8,677.6,701.61,686.49,702.51,689.67Z" transform="translate(-107.78 -51.71)"/><path class="cls-3" d="M695.36,686.25c-2.51-.5-2.2,5.27-2,6.6a9.94,9.94,0,0,1,.24,2.42,6.54,6.54,0,0,1-1,2.47l-2.81,4.86a7.61,7.61,0,0,0-1,2.3,4.48,4.48,0,0,0,3.06,4.84C698.69,712,703.36,703.33,704,698c.09-.82.13-1.65.16-2.47.07-1.71.79-5.53-.11-7.06-1-1.78-3.18,0-4.82-.54S696.37,686.45,695.36,686.25Z" transform="translate(-107.78 -51.71)"/><path class="cls-3" d="M712.4,587.05a21.89,21.89,0,0,1,1.69,2.15c4.11,6,5.56,13.43,5.4,20.66s-1.83,14.34-3.48,21.39c-2,8.5-4.57,17-5,25.64-.11,2.26-3.24,27.73-2.77,27.73a59.33,59.33,0,0,1-8.92,1c-3.43.1-8.91,0-10.68-3.51-.9-1.79-.69-4.94-.89-6.91-.63-6.3-1.11-12.62-1.59-18.94-.94-12.62-2.1-25.23-2.47-37.89-.32-11-2.06-21.73,5.62-30.68,2.89-3.37,6.88-6.09,11.31-6.28S709.34,583.64,712.4,587.05Z" transform="translate(-107.78 -51.71)"/><path class="cls-7" d="M732,686.22c2.14.36,4.19-.2,6.31-.22a108,108,0,0,0-.31-22c-3.61,3.28-6.14.91-6.71,7.7C731.14,673.89,732.8,682.92,732,686.22Z" transform="translate(-107.78 -51.71)"/><path class="cls-3" d="M739.19,682.37c2.54-.63,2.5,5.28,2.38,6.66a10.41,10.41,0,0,0-.12,2.49,6.7,6.7,0,0,0,1.14,2.47l3.12,4.83a7.9,7.9,0,0,1,1.14,2.31,4.59,4.59,0,0,1-2.89,5.1c-6.92,2.66-12.12-6-13-11.45-.13-.84-.21-1.68-.29-2.53-.15-1.74-1.08-5.61-.23-7.22,1-1.87,3.25-.21,4.9-.79S738.16,682.63,739.19,682.37Z" transform="translate(-107.78 -51.71)"/><path class="cls-3" d="M719,587.18a21.72,21.72,0,0,0-1.54,2.16c-3.71,6-4.77,13.29-4.28,20.31s2.44,13.84,4.37,20.6c2.34,8.16,5.23,16.27,6,24.66.21,2.19,4.44,26.77,4,26.79a58.81,58.81,0,0,0,8.7.5c3.33-.06,8.65-.42,10.2-3.9.79-1.78.45-4.83.55-6.75.32-6.15.49-12.3.66-18.46.32-12.29.86-24.59.63-36.89-.2-10.65,1-21.2-6.88-29.53-3-3.13-7-5.59-11.27-5.57S721.76,583.72,719,587.18Z" transform="translate(-107.78 -51.71)"/><path class="cls-7" d="M668.32,560.49a10,10,0,0,1,17.15,4.91c.68,3.59-.63,7.23-1.92,10.65-2.8,7.44-8,14.18-1.81,20.81,4.31,4.64,10.71,6.67,15.1,11,3.22,2.48,7.1,6.56,11,7.87.72.25,7.86.42,7.89.63l.42,1.74-1.74.41-.66,1.07,5.28.31-.71,6-6.31,3c-3.35-2.68-5.61-5.5-9.59-6.94-4.7-1.69-9.52-3-14.2-4.85a187.55,187.55,0,0,1-17.27-7.69c-3.67-1.87-11.41-4.5-12.38-9.19A12.72,12.72,0,0,1,659,595q2.79-12.71,5.6-25.41c.67-3,1.39-6.19,3.36-8.6C668,560.8,668.18,560.64,668.32,560.49Z" transform="translate(-107.78 -51.71)"/><path class="cls-6" d="M668,555.24c-5.09,8.34-8.32,17.69-10.72,27.15a2.33,2.33,0,0,0,.11,2,2.27,2.27,0,0,0,1.42.68L677,589a2.14,2.14,0,0,0,1.5,0,2.17,2.17,0,0,0,.82-1.19q5.07-13.14,10.13-26.28L694.65,548c1-2.52,3.94-7.07,2.72-9.84-2.18-4.94-10.31-1.94-13.41,0C677.38,542.25,672,548.68,668,555.24Z" transform="translate(-107.78 -51.71)"/><path class="cls-7" d="M755.08,556.84a10,10,0,0,0-17.15,4.9c-.69,3.6.62,7.24,1.91,10.66,2.8,7.44,8,14.17,1.82,20.8-4.31,4.64-10.72,6.68-15.1,11.06-3.22,2.48-7.11,6.56-11,7.87-.73.24-7.86.42-7.9.63l-.42,1.74,1.74.4.66,1.08-5.27.31.7,6,6.32,3c3.34-2.67,5.6-5.5,9.58-6.93,4.71-1.69,9.53-3,14.2-4.85a186.32,186.32,0,0,0,17.28-7.7c3.67-1.86,11.41-4.5,12.38-9.18a13,13,0,0,0-.41-5.31q-2.81-12.7-5.6-25.4c-.67-3-1.4-6.19-3.36-8.6C755.36,557.15,755.22,557,755.08,556.84Z" transform="translate(-107.78 -51.71)"/><path class="cls-6" d="M755.37,551.59c5.08,8.34,8.31,17.68,10.71,27.15a1.75,1.75,0,0,1-1.52,2.67l-18.12,4a2.17,2.17,0,0,1-1.51,0,2.13,2.13,0,0,1-.81-1.2L734,557.88q-2.61-6.79-5.23-13.57c-1-2.51-4-7.06-2.73-9.84,2.18-4.94,10.32-1.93,13.42,0C746,538.6,751.37,545,755.37,551.59Z" transform="translate(-107.78 -51.71)"/><path class="cls-20" d="M731.78,347.67h0a3.59,3.59,0,0,1-3.59-3.59V330.7a3.59,3.59,0,0,1,3.59-3.59h0a3.59,3.59,0,0,1,3.59,3.59v13.38A3.59,3.59,0,0,1,731.78,347.67Z" transform="translate(-107.78 -51.71)"/><path class="cls-20" d="M731.78,389.34h0a3.59,3.59,0,0,1-3.59-3.59V372.37a3.59,3.59,0,0,1,3.59-3.59h0a3.59,3.59,0,0,1,3.59,3.59v13.38A3.59,3.59,0,0,1,731.78,389.34Z" transform="translate(-107.78 -51.71)"/><path class="cls-20" d="M731.78,436.31h0a3.59,3.59,0,0,1-3.59-3.59V419.35a3.59,3.59,0,0,1,3.59-3.59h0a3.59,3.59,0,0,1,3.59,3.59v13.37A3.59,3.59,0,0,1,731.78,436.31Z" transform="translate(-107.78 -51.71)"/><path class="cls-20" d="M758.34,373.62h0a3.59,3.59,0,0,1-3.59-3.59V356.65a3.59,3.59,0,0,1,3.59-3.59h0a3.59,3.59,0,0,1,3.59,3.59V370A3.59,3.59,0,0,1,758.34,373.62Z" transform="translate(-107.78 -51.71)"/><path class="cls-20" d="M758.34,415.29h0a3.59,3.59,0,0,1-3.59-3.59V398.32a3.59,3.59,0,0,1,3.59-3.59h0a3.59,3.59,0,0,1,3.59,3.59V411.7A3.59,3.59,0,0,1,758.34,415.29Z" transform="translate(-107.78 -51.71)"/><path class="cls-20" d="M758.34,462.26h0a3.58,3.58,0,0,1-3.59-3.59V445.3a3.58,3.58,0,0,1,3.59-3.59h0a3.59,3.59,0,0,1,3.59,3.59v13.37A3.59,3.59,0,0,1,758.34,462.26Z" transform="translate(-107.78 -51.71)"/><path class="cls-20" d="M667.37,350.32h0a3.59,3.59,0,0,1-3.59-3.59V333.36a3.59,3.59,0,0,1,3.59-3.59h0a3.59,3.59,0,0,1,3.6,3.59v13.37A3.6,3.6,0,0,1,667.37,350.32Z" transform="translate(-107.78 -51.71)"/><path class="cls-20" d="M667.37,392h0a3.59,3.59,0,0,1-3.59-3.59V375a3.59,3.59,0,0,1,3.59-3.59h0A3.59,3.59,0,0,1,671,375V388.4A3.6,3.6,0,0,1,667.37,392Z" transform="translate(-107.78 -51.71)"/><path class="cls-20" d="M667.37,439h0a3.59,3.59,0,0,1-3.59-3.59V422a3.59,3.59,0,0,1,3.59-3.59h0A3.6,3.6,0,0,1,671,422v13.38A3.6,3.6,0,0,1,667.37,439Z" transform="translate(-107.78 -51.71)"/><path class="cls-20" d="M697.66,375.41h0a3.59,3.59,0,0,1-3.59-3.59V358.44a3.59,3.59,0,0,1,3.59-3.59h0a3.59,3.59,0,0,1,3.59,3.59v13.38A3.59,3.59,0,0,1,697.66,375.41Z" transform="translate(-107.78 -51.71)"/><path class="cls-20" d="M697.66,417.08h0a3.59,3.59,0,0,1-3.59-3.59V400.11a3.59,3.59,0,0,1,3.59-3.59h0a3.59,3.59,0,0,1,3.59,3.59v13.38A3.59,3.59,0,0,1,697.66,417.08Z" transform="translate(-107.78 -51.71)"/><path class="cls-20" d="M697.66,464.05h0a3.59,3.59,0,0,1-3.59-3.59V447.09a3.59,3.59,0,0,1,3.59-3.59h0a3.59,3.59,0,0,1,3.59,3.59v13.37A3.59,3.59,0,0,1,697.66,464.05Z" transform="translate(-107.78 -51.71)"/><polygon class="cls-7" points="744.25 386.55 749.71 382.18 750.22 376.07 751.59 375.53 752.34 377.17 754.24 372.23 758.03 370.13 763.3 372.56 766.05 377.84 763.09 382.72 757.07 385.98 749.87 392.29 744.25 386.55"/><polygon class="cls-8" points="745.27 381.71 714.58 404.41 702.83 412.9 708.81 434.33 724.81 432.49 757.74 389.13 745.27 381.71"/><polygon class="cls-7" points="778.12 399.49 773.44 394.29 773.93 388.18 772.66 387.43 771.65 388.92 770.58 383.74 767.18 381.05 761.58 382.61 758.01 387.37 760.15 392.67 765.56 396.86 771.65 404.24 778.12 399.49"/><polygon class="cls-8" points="777.89 394.55 804.52 421.91 814.73 432.19 805.37 452.37 789.87 447.97 764.39 399.86 777.89 394.55"/><path class="cls-7" d="M267.77,536.8c3.76,1.52,7.87,1.85,11.83,2.75a22.84,22.84,0,0,1,9.49,4.86c2.19,1.71,4.38,2.59,7.11.66,5.14-3.65.3-6.17-1.25-9.86-1.77-4.23-1.59-9.07-2.47-13.51-2.53-12.83-19-27.33-32.74-20.75C244.71,508.15,256.37,532.19,267.77,536.8Z" transform="translate(-107.78 -51.71)"/><path class="cls-22" d="M278.78,511.65c1.35-1.19,2.89-2.44,4.69-2.48s3.51,2,2.42,3.39-3.63,1.5-3.5,3.05c.07.91,1.15,1.32,2,1.63a15.15,15.15,0,0,1,8.08,6.53c.9,0,1.21-1.18,1.19-2a33,33,0,0,0-2.65-12.36,6.52,6.52,0,0,0,3.37,0,7.65,7.65,0,0,1-3.09-3.48c-2.86-5-6.7-10.38-12.68-11a14.57,14.57,0,0,0-9.2,2.59,42.56,42.56,0,0,0-7.23,6.44c-1,1-2,2.37-1.35,3.53a15.3,15.3,0,0,1,10-.6C271.8,507.19,278.64,511.77,278.78,511.65Z" transform="translate(-107.78 -51.71)"/><path class="cls-3" d="M264.9,506.28l.4,0c1.71-.18,3.51-.14,5-1,2.19-1.16,3.26-3.76,5.53-4.79,2.54-1.14,6-.05,8.63,0a28.2,28.2,0,0,0,18.28-6.64,11.85,11.85,0,0,0,2.43-2.31c.71-1.17.26-1.58-1.07-.94-4.19,2-9.47-1.55-12.07-4.77-2-2.55-3.56-5.79-6.54-7.13-2.27-1-4.57-.49-6.91-.09-2.57.43-4,2.34-6.28,3.52s-5.28,1.21-7.54,2.64-3.56,4.3-5.2,6.59a17.28,17.28,0,0,1-5.1,4.72c-1.79,1.07-3.81,1.84-5.31,3.29a10,10,0,0,0-2.54,8.54,20.43,20.43,0,0,0,7.41,12.62c-.6-.43-.63-4-.66-4.76a6.6,6.6,0,0,1,1.15-4.53C256.91,508.41,261.3,506.75,264.9,506.28Z" transform="translate(-107.78 -51.71)"/><path class="cls-7" d="M246.8,597.63a1.78,1.78,0,0,1,.55-.37c1.85-.66,3.17-.26,5.23-.42.92-.07,1.76-2,3-.43.47.59,1.11,2,2,3.05a16.07,16.07,0,0,0,6.21,4.12,30.56,30.56,0,0,0,9.65,2.21c7.07.12,13.25-2,19.6-4.94-4.06-9.81-3.88-18.7.59-28.28a5.92,5.92,0,0,1,2.05-2.41,4.92,4.92,0,0,1,2.74-.81c9.87.17,11.17,8.16,11.24,16.43,0,5.17-.07,9.7-1.47,14.54-1.95,6.79-6.33,9.65-13,12-7.12,2.51-15.22,3.91-22.92,2.92-3.75-.48-7.82-2.44-10.89-3.73s-4.37-.44-7.29-1c-1.63-.31-3.62-.26-5.21-.9-2.86-1.15-3.65-3.72-4.66-6.34a2.9,2.9,0,0,1-.32-1.71,5.51,5.51,0,0,1,1.54-2.65A11.07,11.07,0,0,1,246.8,597.63Z" transform="translate(-107.78 -51.71)"/><path class="cls-23" d="M306.88,588.26c-5.87.35-11.52,1.22-17.57,1.37.81-4.78-6.64-20.25-7.39-22.29-2.87-7.79-5.31-10.67-4.35-17,2-13.58,15.46-18.83,24.77-7.55,10.1,12.24,13.24,27.78,11.56,43.49a1.57,1.57,0,0,1-.38.91,1.94,1.94,0,0,1-1.16.46C310.54,587.81,308.73,588.14,306.88,588.26Z" transform="translate(-107.78 -51.71)"/><path class="cls-7" d="M248.55,693.78a33.82,33.82,0,0,0,6.67-.22.66.66,0,0,0,.46-.18.69.69,0,0,0,.12-.39,58.24,58.24,0,0,0-.05-8.86c.11,1.36-5,1.74-5.82,2.42C248.35,687.83,248.25,692,248.55,693.78Z" transform="translate(-107.78 -51.71)"/><path class="cls-3" d="M247.2,690.49a3.31,3.31,0,0,0-2.91,1.45c-.47.52-.75,1.21-1.34,1.61a5.2,5.2,0,0,1-1.94.67c-3.88.78-12.92,1.53-7.44,7.46,5,5.39,16.34,1.9,22.87-.36a2.34,2.34,0,0,0,1.18-.63,2.93,2.93,0,0,0,.54-1.37c.48-2.82,1.16-6.35-2.4-7.15-1.52-.34-2.77.75-4.38.38C250.06,692.24,248.56,690.59,247.2,690.49Z" transform="translate(-107.78 -51.71)"/><path class="cls-7" d="M230.85,695.36a33.76,33.76,0,0,0,6.66.45.72.72,0,0,0,.48-.14.61.61,0,0,0,.15-.37,57.93,57.93,0,0,0,.88-8.82c0,1.37-5.14,1.24-6,1.82C231.28,689.42,230.74,693.53,230.85,695.36Z" transform="translate(-107.78 -51.71)"/><path class="cls-3" d="M229.85,692a3.32,3.32,0,0,0-3,1.15c-.53.47-.88,1.13-1.51,1.46a5.07,5.07,0,0,1-2,.48c-3.94.39-13,.23-8.19,6.68,4.4,5.85,16.06,3.52,22.8,1.93a2.32,2.32,0,0,0,1.23-.5,3.1,3.1,0,0,0,.68-1.31c.77-2.76,1.82-6.2-1.64-7.36-1.48-.49-2.84.47-4.4-.06C232.51,694,231.2,692.18,229.85,692Z" transform="translate(-107.78 -51.71)"/><path class="cls-3" d="M261.72,689.88c2.71-4.13,1.65-11,1.69-15.66,0-5.77,5.22-11.89,10.7-14.85,2.05-1.11,4.7-2.27,4.81-4.56.08-1.8-1.56-3.2-3.13-4.16a33.54,33.54,0,0,0-12.66-4.54c-2.54-.37-9.11-1.75-10.82-.38-2.52,2-3,13-3.59,16.14q-1.47,8.21-2.32,16.51c-.39,3.87-2.2,8.65,1.77,10.67,2.28,1.16,10.67,3.14,12.92,1.52A2.65,2.65,0,0,0,261.72,689.88Z" transform="translate(-107.78 -51.71)"/><path class="cls-3" d="M340.65,662.77a39.86,39.86,0,0,1-9.84,15.06,31.19,31.19,0,0,1-18.92,7.93c-8,.59-16.64-1.12-22-6.78-6.07-6.45-11.23-13.39-16.78-20.22-4.83-6-12.5-4.72-16.73,1.26-5.79,8.18-9.14,17.73-13,26.93a4.67,4.67,0,0,1-1.43,2.14,4.92,4.92,0,0,1-2.85.59c-5.57,0-12.16,2.27-11.93-4.59.13-4,.95-8.06,1.46-12,.66-5.09,1.36-10.18,2.22-15.24.71-4.15,2.88-9.23,2.88-13.37,4.45-15.14,7.21-47.65,30.45-47.47,5.77,0,11.35,2.07,16.51,4.61,7.45,3.67,12.46,10,18.92,14.93,4.54,3.5,10.52,6.12,16,4.45,10.3-3.12,22.92-13.63,29.08,2.46,3.26,8.51.9,19.14-.82,27.74A71.22,71.22,0,0,1,340.65,662.77Z" transform="translate(-107.78 -51.71)"/><path class="cls-23" d="M329.5,544.15q1.33,1,2.58,2.16c10.4,9.4,16.15,22.91,17.28,36.56.71,8.59,1.62,17.2,1.25,25.82-.37,8.41-.14,17-1,25.38a12.05,12.05,0,0,1-1.56,5.48,5.35,5.35,0,0,1-5.11,2.52,7.64,7.64,0,0,1-3.2-1.67c-6.09-4.68-11.79-10.52-19.52-12.07-5.4-1.08-10.81.18-16.22.41-5,.22-6.3-.3-8.72-4.12-3.66-5.78-6-15.14-13.28-17.94,7-7,6.11-17.8,4.8-27.24l-3.48-25c-.78-5.57-1.31-13.92,4.5-17.63a13.75,13.75,0,0,1,4.56-1.68C305.31,532.31,319.25,536.18,329.5,544.15Z" transform="translate(-107.78 -51.71)"/><path class="cls-7" d="M250,616.9a2.58,2.58,0,0,1,.37-.54c1.41-1.38,3-1.26,4.69-2.21.77-.42.94-2.67,2.55-1.8.59.32,1.94,1.32,3.2,2,1.84,1,4.78,1.2,7.15.91,9.29-1.15,18-4.78,26.52-8.66a3.31,3.31,0,0,0,1.32-.87,3.51,3.51,0,0,0,.29-2.77,71.41,71.41,0,0,1-.93-13.23c.09-3.94.54-8,2.32-11.51s5.13-6.47,9.06-6.85a9.4,9.4,0,0,1,7.92,3.21c4.75,5.59-.09,15.15-1.82,21.19a126.11,126.11,0,0,1-6.09,16.76,5.51,5.51,0,0,1-1.16,1.86,5.6,5.6,0,0,1-2.08,1.05,280.2,280.2,0,0,1-29.22,7.71c-2.72.59-5.4-.32-7.91.25-1.6.37-2.59,1.8-4,2.48a15.25,15.25,0,0,1-5,1.29c-3.08.2-5.14-2.25-7.14-4.21a3.27,3.27,0,0,1-1-1.44,4.74,4.74,0,0,1,.33-3A9.07,9.07,0,0,1,250,616.9Z" transform="translate(-107.78 -51.71)"/><path class="cls-23" d="M311.63,593.14c-3.79.12-11.52,1.9-15,.44-3.11-1.33-3.73-5.73-4.71-8.8a101.69,101.69,0,0,1-4.82-28.47c-.05-1.84,0-3.91,1.37-5.18a6.93,6.93,0,0,1,2.7-1.38c4.48-1.5,9-3,13.7-3.49,3.71-.38,10.76-.39,13.71,2.47s3,9.25,3.37,13a72.9,72.9,0,0,1-3.06,30,1.82,1.82,0,0,1-.45.83,1.88,1.88,0,0,1-1.24.34Z" transform="translate(-107.78 -51.71)"/><circle class="cls-12" cx="490.35" cy="585.5" r="139.24" transform="translate(-378.17 466.51) rotate(-45)"/><path class="cls-13" d="M563.2,466.66A139.26,139.26,0,0,1,373,660.34,139.25,139.25,0,1,0,563.2,466.66Z" transform="translate(-107.78 -51.71)"/><path class="cls-14" d="M370,600.19a129.27,129.27,0,0,1,231.76-78.8A129.29,129.29,0,1,0,387.21,664.63,128.66,128.66,0,0,1,370,600.19Z" transform="translate(-107.78 -51.71)"/><path class="cls-3" d="M433.27,647.39a4.59,4.59,0,0,1-7.47-5,69.79,69.79,0,0,1,129.07-1.28,4.58,4.58,0,0,1-7.41,5.06C527.08,626.4,483.82,598.29,433.27,647.39Z" transform="translate(-107.78 -51.71)"/><ellipse class="cls-3" cx="331.27" cy="498.99" rx="10.26" ry="17.29"/><path class="cls-3" d="M551.91,550.7c0,9.55-4.6,17.29-10.26,17.29s-10.26-7.74-10.26-17.29,4.59-17.3,10.26-17.3S551.91,541.14,551.91,550.7Z" transform="translate(-107.78 -51.71)"/><path class="cls-20" d="M200.13,414.75a2.24,2.24,0,0,1-3.65-2.45,34.13,34.13,0,0,1,63.11-.63,2.25,2.25,0,0,1-3.63,2.48C246,404.49,224.84,390.74,200.13,414.75Z" transform="translate(-107.78 -51.71)"/><path class="cls-20" d="M208,367.47c0,4.67-2.24,8.46-5,8.46s-5-3.79-5-8.46,2.24-8.45,5-8.45S208,362.8,208,367.47Z" transform="translate(-107.78 -51.71)"/><path class="cls-20" d="M258.14,367.47c0,4.67-2.25,8.46-5,8.46s-5-3.79-5-8.46,2.25-8.45,5-8.45S258.14,362.8,258.14,367.47Z" transform="translate(-107.78 -51.71)"/><polygon class="cls-7" points="423.8 460.42 427.41 472.76 432.75 471.45 432.15 462.45 434.97 463 430.59 452.82 424.86 453.43 423.8 460.42"/><path class="cls-6" d="M565.78,428.05l-26.53,21.73,1.76,57.7-11.45.63-17.17-67.65,25.11-32.13a19.63,19.63,0,0,1,29.39-1.73h0A14.51,14.51,0,0,1,565.78,428.05Z" transform="translate(-107.78 -51.71)"/></svg>